# xmcd
#
# Track frame offsets:
#	150
#	18211
#	36501
#	53826
#	85277
#	104693
#	120143
#	140245
#	152885
#	175331
#	195959
#	214955
#
# Disc length: 3167 seconds
#
# Revision: 0
# Processed by: cddbd v1.4PL0 Copyright (c) Steve Scherf et al.
# Submitted via: OrangeCD 4.1
#
DISCID=a60c5d0c
DTITLE=Big Easy Blues Band, The - Blue Mondays
DYEAR=1900
DGENRE=
TTITLE0=She Caught the Katy
TTITLE1=My Little Girl
TTITLE2=Hotstuff
TTITLE3=California's Blues
TTITLE4=Whole Lotta Shaking/Caldonia
TTITLE5=Just a Teeny Bit of Your Love
TTITLE6=Sweet Home Chicago
TTITLE7=Get a Little
TTITLE8=Move Up To The Country
TTITLE9=Got My Mojo Working
TTITLE10=How Sweet It Is
TTITLE11=Tired Of Loving
EXTD=
EXTT0=
EXTT1=
EXTT2=
EXTT3=
EXTT4=
EXTT5=
EXTT6=
EXTT7=
EXTT8=
EXTT9=
EXTT10=
EXTT11=
PLAYORDER=
